<?xml version="1.0" encoding="iso-8859-1"?>
<!-- Generator: Adobe Illustrator 19.0.0, SVG Export Plug-In . SVG Version: 6.00 Build 0)  -->
<svg version="1.1" id="Layer_1" xmlns="http://www.w3.org/2000/svg" xmlns:xlink="http://www.w3.org/1999/xlink" x="0px" y="0px"
	 viewBox="0 0 512 512" style="enable-background:new 0 0 512 512;" xml:space="preserve">
<path style="fill:#65CAFF;" d="M347.643,243.74l-61.421-43.301c-6.771-4.774-16.128-3.153-20.902,3.617
	c-4.773,6.771-3.154,16.129,3.617,20.903L291.69,241H60.5c-8.284,0-15,6.716-15,15s6.716,15,15,15h231.19l-22.754,16.042
	c-6.771,4.773-8.391,14.132-3.617,20.903c4.777,6.774,14.136,8.388,20.902,3.617l61.421-43.301
	C356.159,262.257,356.024,249.648,347.643,243.74z"/>
<path style="fill:#35BAFF;" d="M421.5,512h-240c-24.813,0-45-20.187-45-45V356c0-8.284,6.716-15,15-15s15,6.716,15,15v111
	c0,8.271,6.729,15,15,15h240c8.271,0,15-6.729,15-15V45c0-8.271-6.729-15-15-15h-240c-8.271,0-15,6.729-15,15v111
	c0,8.284-6.716,15-15,15s-15-6.716-15-15V45c0-24.813,20.187-45,45-45h240c24.813,0,45,20.187,45,45v422
	C466.5,491.813,446.313,512,421.5,512z"/>
<path style="fill:#00A3FF;" d="M436.5,256v211c0,8.271-6.729,15-15,15h-240c-8.271,0-15-6.729-15-15V356c0-8.284-6.716-15-15-15
	s-15,6.716-15,15v111c0,24.813,20.187,45,45,45h240c24.813,0,45-20.187,45-45V256H436.5z"/>
<path style="fill:#35BAFF;" d="M354,256h-41.033H45.5c0,8.284,6.716,15,15,15h231.19l-22.754,16.042
	c-6.771,4.773-8.391,14.132-3.617,20.903c4.777,6.774,14.136,8.388,20.902,3.617l61.421-43.301C351.514,265.531,354,260.902,354,256
	z"/>
<g>
</g>
<g>
</g>
<g>
</g>
<g>
</g>
<g>
</g>
<g>
</g>
<g>
</g>
<g>
</g>
<g>
</g>
<g>
</g>
<g>
</g>
<g>
</g>
<g>
</g>
<g>
</g>
<g>
</g>
</svg>
